<svg width="10" height="24" viewBox="0 0 10 24" fill="none" xmlns="http://www.w3.org/2000/svg">
<mask id="path-1-outside-1_584_470" maskUnits="userSpaceOnUse" x="-0.998474" y="-0.200073" width="11" height="24" fill="black">
<rect fill="white" x="-0.998474" y="-0.200073" width="11" height="24"/>
<path d="M2.10353 7.39952C1.25687 7.39952 0.727357 6.48338 1.1504 5.7501L3.57521 1.54991C3.99857 0.816623 5.05703 0.816725 5.48048 1.54991L7.90529 5.7501C8.32867 6.48343 7.79991 7.39951 6.95314 7.39952H5.52833L5.52833 16.3995H6.95314C7.79991 16.3995 8.32867 17.3166 7.90529 18.0499L5.48048 22.2501C5.05696 22.9831 3.99853 22.9833 3.57521 22.2501L1.1504 18.0499C0.727149 17.3166 1.2568 16.3995 2.10353 16.3995H3.52833L3.52833 7.39952H2.10353Z"/>
</mask>
<path d="M2.10353 7.39952C1.25687 7.39952 0.727357 6.48338 1.1504 5.7501L3.57521 1.54991C3.99857 0.816623 5.05703 0.816725 5.48048 1.54991L7.90529 5.7501C8.32867 6.48343 7.79991 7.39951 6.95314 7.39952H5.52833L5.52833 16.3995H6.95314C7.79991 16.3995 8.32867 17.3166 7.90529 18.0499L5.48048 22.2501C5.05696 22.9831 3.99853 22.9833 3.57521 22.2501L1.1504 18.0499C0.727149 17.3166 1.2568 16.3995 2.10353 16.3995H3.52833L3.52833 7.39952H2.10353Z" fill="white"/>
<path d="M1.1504 5.7501L0.284361 5.25013L0.284217 5.25038L1.1504 5.7501ZM3.57521 1.54991L2.70918 1.04991L2.70917 1.04993L3.57521 1.54991ZM5.48048 1.54991L6.34652 1.04993L6.34643 1.04978L5.48048 1.54991ZM7.90529 5.7501L7.03924 6.25007L7.03926 6.2501L7.90529 5.7501ZM6.95314 7.39952V8.39952H6.95314L6.95314 7.39952ZM5.52833 7.39952V6.39952H4.52833V7.39952H5.52833ZM5.52833 16.3995H4.52833V17.3995H5.52833V16.3995ZM6.95314 16.3995L6.95314 15.3995H6.95314L6.95314 16.3995ZM7.90529 18.0499L7.03926 17.5499L7.03924 17.5499L7.90529 18.0499ZM5.48048 22.2501L6.34633 22.7504L6.34652 22.7501L5.48048 22.2501ZM3.57521 22.2501L2.70917 22.7501L2.70918 22.7501L3.57521 22.2501ZM1.1504 18.0499L0.284313 18.5498L0.284361 18.5499L1.1504 18.0499ZM3.52833 16.3995V17.3995H4.52833V16.3995H3.52833ZM3.52833 7.39952H4.52833V6.39952H3.52833V7.39952ZM2.10353 7.39952V6.39952C2.07645 6.39952 2.06214 6.39325 2.05277 6.38763C2.04079 6.38043 2.02729 6.36784 2.01664 6.34943C2.006 6.33101 2.00188 6.31311 2.00163 6.29929C2.00144 6.28853 2.00312 6.27317 2.01659 6.24982L1.1504 5.7501L0.284217 5.25038C-0.523784 6.65091 0.487894 8.39952 2.10353 8.39952V7.39952ZM1.1504 5.7501L2.01644 6.25007L4.44125 2.04988L3.57521 1.54991L2.70917 1.04993L0.284361 5.25013L1.1504 5.7501ZM3.57521 1.54991L4.44123 2.04991C4.45472 2.02654 4.46722 2.01736 4.47669 2.01211C4.48884 2.00538 4.50646 1.99998 4.52778 1.99998C4.54909 1.99998 4.56676 2.00539 4.57896 2.01215C4.58849 2.01743 4.60102 2.02665 4.61453 2.05004L5.48048 1.54991L6.34643 1.04978C5.53816 -0.349705 3.51755 -0.350237 2.70918 1.04991L3.57521 1.54991ZM5.48048 1.54991L4.61444 2.04988L7.03924 6.25007L7.90529 5.7501L8.77133 5.25013L6.34652 1.04993L5.48048 1.54991ZM7.90529 5.7501L7.03926 6.2501C7.05285 6.27363 7.05454 6.28914 7.05436 6.29993C7.05412 6.31377 7.05001 6.3316 7.03946 6.34987C7.02891 6.36815 7.01554 6.3806 7.00372 6.38771C6.9945 6.39324 6.98027 6.39952 6.95313 6.39952L6.95314 7.39952L6.95314 8.39952C8.56992 8.3995 9.5795 6.64992 8.77131 5.2501L7.90529 5.7501ZM6.95314 7.39952V6.39952H5.52833V7.39952V8.39952H6.95314V7.39952ZM5.52833 7.39952H4.52833L4.52833 16.3995H5.52833H6.52833L6.52833 7.39952H5.52833ZM5.52833 16.3995V17.3995H6.95314V16.3995L6.95314 15.3995H5.52833L5.52833 16.3995ZM6.95314 16.3995L6.95313 17.3995C6.98006 17.3995 6.99417 17.4057 7.00336 17.4113C7.01518 17.4184 7.02864 17.4309 7.03929 17.4494C7.04994 17.4678 7.05411 17.4859 7.05436 17.4999C7.05455 17.5109 7.0528 17.5265 7.03926 17.5499L7.90529 18.0499L8.77131 18.5499C9.57906 17.1508 8.5708 15.3995 6.95314 15.3995L6.95314 16.3995ZM7.90529 18.0499L7.03924 17.5499L4.61444 21.7501L5.48048 22.2501L6.34652 22.7501L8.77133 18.5499L7.90529 18.0499ZM5.48048 22.2501L4.61463 21.7498C4.60112 21.7732 4.58858 21.7824 4.579 21.7877C4.56674 21.7945 4.54903 21.7999 4.52769 21.7999C4.50635 21.7999 4.48873 21.7945 4.47661 21.7878C4.46717 21.7826 4.4547 21.7734 4.44123 21.7501L3.57521 22.2501L2.70918 22.7501C3.51766 24.1504 5.53809 24.1492 6.34633 22.7504L5.48048 22.2501ZM3.57521 22.2501L4.44125 21.7501L2.01644 17.5499L1.1504 18.0499L0.284361 18.5499L2.70917 22.7501L3.57521 22.2501ZM1.1504 18.0499L2.01649 17.55C2.00306 17.5267 2.00134 17.5114 2.00154 17.5005C2.00179 17.4865 2.00595 17.4684 2.01668 17.4498C2.02741 17.4312 2.04101 17.4186 2.05301 17.4114C2.06239 17.4057 2.07662 17.3995 2.10353 17.3995L2.10353 16.3995V15.3995C0.487229 15.3995 -0.523815 17.1497 0.284313 18.5498L1.1504 18.0499ZM2.10353 16.3995L2.10353 17.3995H3.52833V16.3995V15.3995H2.10353V16.3995ZM3.52833 16.3995H4.52833L4.52833 7.39952H3.52833H2.52833L2.52833 16.3995H3.52833ZM3.52833 7.39952V6.39952H2.10353V7.39952V8.39952H3.52833V7.39952Z" fill="black" mask="url(#path-1-outside-1_584_470)"/>
</svg>
